# Blender 3.6.2
# www.blender.org
o 1C-cortinas2
v -12.911390 0.429737 4.122854
v -13.046449 0.429737 4.552108
v -12.911390 3.579737 4.122854
v -13.046449 3.579737 4.552108
v -13.189533 0.429737 4.507089
v -13.279572 0.429737 4.793258
v -13.189533 3.579737 4.507089
v -13.279572 3.579737 4.793259
v -13.422657 0.429737 4.748239
v -13.512695 0.429737 5.034409
v -13.422657 3.579737 4.748239
v -13.512696 3.579737 5.034409
v -13.655781 0.429737 4.989389
v -13.700800 0.429737 5.132474
v -13.655781 3.579737 4.989389
v -13.700800 3.579737 5.132474
v -13.843884 0.429737 5.087454
v -13.888905 0.429737 5.230539
v -13.843884 3.579737 5.087455
v -13.888905 3.579737 5.230539
v -14.175074 0.429737 5.140500
v -14.220093 0.429737 5.283585
v -14.175074 3.579737 5.140501
v -14.220093 3.579737 5.283586
v -13.054475 0.429737 4.077835
v -13.144514 0.429737 4.364004
v -13.054475 3.579737 4.077835
v -13.144514 3.579737 4.364004
v -13.287599 0.429737 4.318985
v -13.377638 0.429737 4.605154
v -13.287599 3.579737 4.318985
v -13.377638 3.579737 4.605155
v -13.520722 0.429737 4.560135
v -13.610761 0.429737 4.846304
v -13.520722 3.579737 4.560135
v -13.610762 3.579737 4.846304
v -13.753846 0.429737 4.801285
v -13.798865 0.429737 4.944370
v -13.753846 3.579737 4.801285
v -13.798865 3.579737 4.944370
v -13.941950 0.429737 4.899350
v -13.986969 0.429737 5.042435
v -13.941950 3.579737 4.899350
v -13.986970 3.579737 5.042435
v -14.273139 0.429737 4.952396
v -14.318158 0.429737 5.095481
v -14.273139 3.579737 4.952396
v -14.318159 3.579737 5.095481
v -14.461244 0.429737 5.050462
v -14.506263 0.429737 5.193546
v -14.461244 3.579737 5.050462
v -14.506263 3.579737 5.193546
v -12.911390 0.429737 4.122854
v -12.911390 3.579737 4.122854
v -13.054475 0.429737 4.077835
v -13.054475 3.579737 4.077835
v -13.144514 0.429737 4.364004
v -13.144514 3.579737 4.364004
v -13.287599 0.429737 4.318985
v -13.287599 3.579737 4.318985
v -13.377638 0.429737 4.605154
v -13.377638 3.579737 4.605155
v -13.520722 0.429737 4.560135
v -13.520722 3.579737 4.560135
v -13.610761 0.429737 4.846304
v -13.610762 3.579737 4.846304
v -13.753846 0.429737 4.801285
v -13.753846 3.579737 4.801285
v -13.798865 0.429737 4.944370
v -13.798865 3.579737 4.944370
v -13.941950 0.429737 4.899350
v -13.941950 3.579737 4.899350
v -13.986969 0.429737 5.042435
v -13.986970 3.579737 5.042435
v -14.273139 0.429737 4.952396
v -14.273139 3.579737 4.952396
v -14.318158 0.429737 5.095481
v -14.318159 3.579737 5.095481
v -14.461244 0.429737 5.050462
v -14.461244 3.579737 5.050462
v -13.046449 0.429737 4.552108
v -13.046449 3.579737 4.552108
v -13.189533 0.429737 4.507089
v -13.189533 3.579737 4.507089
v -13.279572 0.429737 4.793258
v -13.279572 3.579737 4.793259
v -13.422657 0.429737 4.748239
v -13.422657 3.579737 4.748239
v -13.512695 0.429737 5.034409
v -13.512696 3.579737 5.034409
v -13.655781 0.429737 4.989389
v -13.655781 3.579737 4.989389
v -13.700800 0.429737 5.132474
v -13.700800 3.579737 5.132474
v -13.843884 0.429737 5.087454
v -13.843884 3.579737 5.087455
v -13.888905 0.429737 5.230539
v -13.888905 3.579737 5.230539
v -14.175074 0.429737 5.140500
v -14.175074 3.579737 5.140501
v -14.220093 0.429737 5.283585
v -14.220093 3.579737 5.283586
v -14.506263 0.429737 5.193546
v -14.506263 3.579737 5.193546
v -12.911390 0.429737 4.122854
v -13.054475 0.429737 4.077835
v -13.144514 0.429737 4.364004
v -13.287599 0.429737 4.318985
v -13.046449 0.429737 4.552108
v -13.189533 0.429737 4.507089
v -13.377638 0.429737 4.605154
v -13.520722 0.429737 4.560135
v -13.279572 0.429737 4.793258
v -13.422657 0.429737 4.748239
v -13.610761 0.429737 4.846304
v -13.753846 0.429737 4.801285
v -13.512695 0.429737 5.034409
v -13.655781 0.429737 4.989389
v -13.798865 0.429737 4.944370
v -13.941950 0.429737 4.899350
v -13.700800 0.429737 5.132474
v -13.843884 0.429737 5.087454
v -13.986969 0.429737 5.042435
v -14.273139 0.429737 4.952396
v -13.888905 0.429737 5.230539
v -14.175074 0.429737 5.140500
v -14.318158 0.429737 5.095481
v -14.461244 0.429737 5.050462
v -14.220093 0.429737 5.283585
v -14.506263 0.429737 5.193546
v -12.911390 3.579737 4.122854
v -13.054475 3.579737 4.077835
v -13.144514 3.579737 4.364004
v -13.287599 3.579737 4.318985
v -13.046449 3.579737 4.552108
v -13.189533 3.579737 4.507089
v -13.377638 3.579737 4.605155
v -13.520722 3.579737 4.560135
v -13.279572 3.579737 4.793259
v -13.422657 3.579737 4.748239
v -13.610762 3.579737 4.846304
v -13.753846 3.579737 4.801285
v -13.512696 3.579737 5.034409
v -13.655781 3.579737 4.989389
v -13.798865 3.579737 4.944370
v -13.941950 3.579737 4.899350
v -13.700800 3.579737 5.132474
v -13.843884 3.579737 5.087455
v -13.986970 3.579737 5.042435
v -14.273139 3.579737 4.952396
v -13.888905 3.579737 5.230539
v -14.175074 3.579737 5.140501
v -14.318159 3.579737 5.095481
v -14.461244 3.579737 5.050462
v -14.220093 3.579737 5.283586
v -14.506263 3.579737 5.193546
v -12.839911 0.429737 2.883031
v -12.986385 0.429737 2.457537
v -12.839911 3.579737 2.883031
v -12.986385 3.579737 2.457538
v -13.128217 0.429737 2.506362
v -13.225867 0.429737 2.222700
v -13.128217 3.579737 2.506362
v -13.225867 3.579737 2.222700
v -13.367698 0.429737 2.271524
v -13.465348 0.429737 1.987862
v -13.367698 3.579737 2.271525
v -13.465348 3.579737 1.987862
v -13.607180 0.429737 2.036687
v -13.656004 0.429737 1.894855
v -13.607180 3.579737 2.036687
v -13.656004 3.579737 1.894856
v -13.797836 0.429737 1.943681
v -13.846661 0.429737 1.801849
v -13.797835 3.579737 1.943681
v -13.846661 3.579737 1.801849
v -14.130323 0.429737 1.899499
v -14.179149 0.429737 1.757668
v -14.130323 3.579737 1.899499
v -14.179148 3.579737 1.757668
v -12.981742 0.429737 2.931856
v -13.079392 0.429737 2.648194
v -12.981742 3.579737 2.931857
v -13.079392 3.579737 2.648194
v -13.221223 0.429737 2.697019
v -13.318873 0.429737 2.413356
v -13.221223 3.579737 2.697019
v -13.318873 3.579737 2.413356
v -13.460705 0.429737 2.462181
v -13.558354 0.429737 2.178518
v -13.460705 3.579737 2.462181
v -13.558354 3.579737 2.178518
v -13.700186 0.429737 2.227343
v -13.749011 0.429737 2.085512
v -13.700186 3.579737 2.227343
v -13.749011 3.579737 2.085512
v -13.890842 0.429737 2.134337
v -13.939667 0.429737 1.992505
v -13.890842 3.579737 2.134337
v -13.939667 3.579737 1.992506
v -14.223330 0.429737 2.090156
v -14.272155 0.429737 1.948324
v -14.223330 3.579737 2.090156
v -14.272155 3.579737 1.948324
v -14.413986 0.429737 1.997149
v -14.462811 0.429737 1.855318
v -14.413986 3.579737 1.997149
v -14.462811 3.579737 1.855318
v -12.839911 0.429737 2.883031
v -12.839911 3.579737 2.883031
v -12.981742 0.429737 2.931856
v -12.981742 3.579737 2.931857
v -13.079392 0.429737 2.648194
v -13.079392 3.579737 2.648194
v -13.221223 0.429737 2.697019
v -13.221223 3.579737 2.697019
v -13.318873 0.429737 2.413356
v -13.318873 3.579737 2.413356
v -13.460705 0.429737 2.462181
v -13.460705 3.579737 2.462181
v -13.558354 0.429737 2.178518
v -13.558354 3.579737 2.178518
v -13.700186 0.429737 2.227343
v -13.700186 3.579737 2.227343
v -13.749011 0.429737 2.085512
v -13.749011 3.579737 2.085512
v -13.890842 0.429737 2.134337
v -13.890842 3.579737 2.134337
v -13.939667 0.429737 1.992505
v -13.939667 3.579737 1.992506
v -14.223330 0.429737 2.090156
v -14.223330 3.579737 2.090156
v -14.272155 0.429737 1.948324
v -14.272155 3.579737 1.948324
v -14.413986 0.429737 1.997149
v -14.413986 3.579737 1.997149
v -12.986385 0.429737 2.457537
v -12.986385 3.579737 2.457538
v -13.128217 0.429737 2.506362
v -13.128217 3.579737 2.506362
v -13.225867 0.429737 2.222700
v -13.225867 3.579737 2.222700
v -13.367698 0.429737 2.271524
v -13.367698 3.579737 2.271525
v -13.465348 0.429737 1.987862
v -13.465348 3.579737 1.987862
v -13.607180 0.429737 2.036687
v -13.607180 3.579737 2.036687
v -13.656004 0.429737 1.894855
v -13.656004 3.579737 1.894856
v -13.797836 0.429737 1.943681
v -13.797835 3.579737 1.943681
v -13.846661 0.429737 1.801849
v -13.846661 3.579737 1.801849
v -14.130323 0.429737 1.899499
v -14.130323 3.579737 1.899499
v -14.179149 0.429737 1.757668
v -14.179148 3.579737 1.757668
v -14.462811 0.429737 1.855318
v -14.462811 3.579737 1.855318
v -12.839911 0.429737 2.883031
v -12.981742 0.429737 2.931856
v -13.079392 0.429737 2.648194
v -13.221223 0.429737 2.697019
v -12.986385 0.429737 2.457537
v -13.128217 0.429737 2.506362
v -13.318873 0.429737 2.413356
v -13.460705 0.429737 2.462181
v -13.225867 0.429737 2.222700
v -13.367698 0.429737 2.271524
v -13.558354 0.429737 2.178518
v -13.700186 0.429737 2.227343
v -13.465348 0.429737 1.987862
v -13.607180 0.429737 2.036687
v -13.749011 0.429737 2.085512
v -13.890842 0.429737 2.134337
v -13.656004 0.429737 1.894855
v -13.797836 0.429737 1.943681
v -13.939667 0.429737 1.992505
v -14.223330 0.429737 2.090156
v -13.846661 0.429737 1.801849
v -14.130323 0.429737 1.899499
v -14.272155 0.429737 1.948324
v -14.413986 0.429737 1.997149
v -14.179149 0.429737 1.757668
v -14.462811 0.429737 1.855318
v -12.839911 3.579737 2.883031
v -12.981742 3.579737 2.931857
v -13.079392 3.579737 2.648194
v -13.221223 3.579737 2.697019
v -12.986385 3.579737 2.457538
v -13.128217 3.579737 2.506362
v -13.318873 3.579737 2.413356
v -13.460705 3.579737 2.462181
v -13.225867 3.579737 2.222700
v -13.367698 3.579737 2.271525
v -13.558354 3.579737 2.178518
v -13.700186 3.579737 2.227343
v -13.465348 3.579737 1.987862
v -13.607180 3.579737 2.036687
v -13.749011 3.579737 2.085512
v -13.890842 3.579737 2.134337
v -13.656004 3.579737 1.894856
v -13.797835 3.579737 1.943681
v -13.939667 3.579737 1.992506
v -14.223330 3.579737 2.090156
v -13.846661 3.579737 1.801849
v -14.130323 3.579737 1.899499
v -14.272155 3.579737 1.948324
v -14.413986 3.579737 1.997149
v -14.179148 3.579737 1.757668
v -14.462811 3.579737 1.855318
vn 0.9539 -0.0000 0.3001
vn -0.9539 -0.0000 -0.3001
vn 0.3001 -0.0000 -0.9539
vn -0.3001 -0.0000 0.9539
vn -0.0000 -1.0000 -0.0000
vn -0.0000 1.0000 -0.0000
vn 0.9455 -0.0000 -0.3255
vn -0.9455 -0.0000 0.3255
vn 0.3255 -0.0000 0.9455
vn -0.3255 -0.0000 -0.9455
vt 0.529297 0.500000
s 0
f 3/1/1 2/1/1 1/1/1
f 4/1/1 2/1/1 3/1/1
f 7/1/1 6/1/1 5/1/1
f 8/1/1 6/1/1 7/1/1
f 11/1/1 10/1/1 9/1/1
f 12/1/1 10/1/1 11/1/1
f 15/1/1 14/1/1 13/1/1
f 16/1/1 14/1/1 15/1/1
f 19/1/1 18/1/1 17/1/1
f 20/1/1 18/1/1 19/1/1
f 23/1/1 22/1/1 21/1/1
f 24/1/1 22/1/1 23/1/1
f 25/1/2 26/1/2 27/1/2
f 27/1/2 26/1/2 28/1/2
f 29/1/2 30/1/2 31/1/2
f 31/1/2 30/1/2 32/1/2
f 33/1/2 34/1/2 35/1/2
f 35/1/2 34/1/2 36/1/2
f 37/1/2 38/1/2 39/1/2
f 39/1/2 38/1/2 40/1/2
f 41/1/2 42/1/2 43/1/2
f 43/1/2 42/1/2 44/1/2
f 45/1/2 46/1/2 47/1/2
f 47/1/2 46/1/2 48/1/2
f 49/1/2 50/1/2 51/1/2
f 51/1/2 50/1/2 52/1/2
f 55/1/3 54/1/3 53/1/3
f 56/1/3 54/1/3 55/1/3
f 59/1/3 58/1/3 57/1/3
f 60/1/3 58/1/3 59/1/3
f 63/1/3 62/1/3 61/1/3
f 64/1/3 62/1/3 63/1/3
f 67/1/3 66/1/3 65/1/3
f 68/1/3 66/1/3 67/1/3
f 71/1/3 70/1/3 69/1/3
f 72/1/3 70/1/3 71/1/3
f 75/1/3 74/1/3 73/1/3
f 76/1/3 74/1/3 75/1/3
f 79/1/3 78/1/3 77/1/3
f 80/1/3 78/1/3 79/1/3
f 81/1/4 82/1/4 83/1/4
f 83/1/4 82/1/4 84/1/4
f 85/1/4 86/1/4 87/1/4
f 87/1/4 86/1/4 88/1/4
f 89/1/4 90/1/4 91/1/4
f 91/1/4 90/1/4 92/1/4
f 93/1/4 94/1/4 95/1/4
f 95/1/4 94/1/4 96/1/4
f 97/1/4 98/1/4 99/1/4
f 99/1/4 98/1/4 100/1/4
f 101/1/4 102/1/4 103/1/4
f 103/1/4 102/1/4 104/1/4
f 107/1/5 106/1/5 105/1/5
f 109/1/5 107/1/5 105/1/5
f 109/1/5 108/1/5 107/1/5
f 110/1/5 108/1/5 109/1/5
f 111/1/5 108/1/5 110/1/5
f 113/1/5 111/1/5 110/1/5
f 113/1/5 112/1/5 111/1/5
f 114/1/5 112/1/5 113/1/5
f 115/1/5 112/1/5 114/1/5
f 117/1/5 115/1/5 114/1/5
f 117/1/5 116/1/5 115/1/5
f 118/1/5 116/1/5 117/1/5
f 119/1/5 116/1/5 118/1/5
f 121/1/5 120/1/5 119/1/5
f 121/1/5 119/1/5 118/1/5
f 122/1/5 120/1/5 121/1/5
f 123/1/5 120/1/5 122/1/5
f 125/1/5 124/1/5 123/1/5
f 125/1/5 123/1/5 122/1/5
f 126/1/5 124/1/5 125/1/5
f 127/1/5 124/1/5 126/1/5
f 129/1/5 128/1/5 127/1/5
f 129/1/5 127/1/5 126/1/5
f 130/1/5 128/1/5 129/1/5
f 131/1/6 132/1/6 133/1/6
f 131/1/6 133/1/6 135/1/6
f 133/1/6 134/1/6 135/1/6
f 135/1/6 134/1/6 136/1/6
f 136/1/6 134/1/6 137/1/6
f 136/1/6 137/1/6 139/1/6
f 137/1/6 138/1/6 139/1/6
f 139/1/6 138/1/6 140/1/6
f 140/1/6 138/1/6 141/1/6
f 140/1/6 141/1/6 143/1/6
f 141/1/6 142/1/6 143/1/6
f 143/1/6 142/1/6 144/1/6
f 144/1/6 142/1/6 145/1/6
f 145/1/6 146/1/6 147/1/6
f 144/1/6 145/1/6 147/1/6
f 147/1/6 146/1/6 148/1/6
f 148/1/6 146/1/6 149/1/6
f 149/1/6 150/1/6 151/1/6
f 148/1/6 149/1/6 151/1/6
f 151/1/6 150/1/6 152/1/6
f 152/1/6 150/1/6 153/1/6
f 153/1/6 154/1/6 155/1/6
f 152/1/6 153/1/6 155/1/6
f 155/1/6 154/1/6 156/1/6
f 159/1/7 157/1/7 158/1/7
f 160/1/7 159/1/7 158/1/7
f 163/1/7 161/1/7 162/1/7
f 164/1/7 163/1/7 162/1/7
f 167/1/7 165/1/7 166/1/7
f 168/1/7 167/1/7 166/1/7
f 171/1/7 169/1/7 170/1/7
f 172/1/7 171/1/7 170/1/7
f 175/1/7 173/1/7 174/1/7
f 176/1/7 175/1/7 174/1/7
f 179/1/7 177/1/7 178/1/7
f 180/1/7 179/1/7 178/1/7
f 181/1/8 183/1/8 182/1/8
f 183/1/8 184/1/8 182/1/8
f 185/1/8 187/1/8 186/1/8
f 187/1/8 188/1/8 186/1/8
f 189/1/8 191/1/8 190/1/8
f 191/1/8 192/1/8 190/1/8
f 193/1/8 195/1/8 194/1/8
f 195/1/8 196/1/8 194/1/8
f 197/1/8 199/1/8 198/1/8
f 199/1/8 200/1/8 198/1/8
f 201/1/8 203/1/8 202/1/8
f 203/1/8 204/1/8 202/1/8
f 205/1/8 207/1/8 206/1/8
f 207/1/8 208/1/8 206/1/8
f 211/1/9 209/1/9 210/1/9
f 212/1/9 211/1/9 210/1/9
f 215/1/9 213/1/9 214/1/9
f 216/1/9 215/1/9 214/1/9
f 219/1/9 217/1/9 218/1/9
f 220/1/9 219/1/9 218/1/9
f 223/1/9 221/1/9 222/1/9
f 224/1/9 223/1/9 222/1/9
f 227/1/9 225/1/9 226/1/9
f 228/1/9 227/1/9 226/1/9
f 231/1/9 229/1/9 230/1/9
f 232/1/9 231/1/9 230/1/9
f 235/1/9 233/1/9 234/1/9
f 236/1/9 235/1/9 234/1/9
f 237/1/10 239/1/10 238/1/10
f 239/1/10 240/1/10 238/1/10
f 241/1/10 243/1/10 242/1/10
f 243/1/10 244/1/10 242/1/10
f 245/1/10 247/1/10 246/1/10
f 247/1/10 248/1/10 246/1/10
f 249/1/10 251/1/10 250/1/10
f 251/1/10 252/1/10 250/1/10
f 253/1/10 255/1/10 254/1/10
f 255/1/10 256/1/10 254/1/10
f 257/1/10 259/1/10 258/1/10
f 259/1/10 260/1/10 258/1/10
f 263/1/5 261/1/5 262/1/5
f 265/1/5 261/1/5 263/1/5
f 265/1/5 263/1/5 264/1/5
f 266/1/5 265/1/5 264/1/5
f 267/1/5 266/1/5 264/1/5
f 269/1/5 266/1/5 267/1/5
f 269/1/5 267/1/5 268/1/5
f 270/1/5 269/1/5 268/1/5
f 271/1/5 270/1/5 268/1/5
f 273/1/5 270/1/5 271/1/5
f 273/1/5 271/1/5 272/1/5
f 274/1/5 273/1/5 272/1/5
f 275/1/5 274/1/5 272/1/5
f 277/1/5 275/1/5 276/1/5
f 277/1/5 274/1/5 275/1/5
f 278/1/5 277/1/5 276/1/5
f 279/1/5 278/1/5 276/1/5
f 281/1/5 279/1/5 280/1/5
f 281/1/5 278/1/5 279/1/5
f 282/1/5 281/1/5 280/1/5
f 283/1/5 282/1/5 280/1/5
f 285/1/5 283/1/5 284/1/5
f 285/1/5 282/1/5 283/1/5
f 286/1/5 285/1/5 284/1/5
f 287/1/6 289/1/6 288/1/6
f 287/1/6 291/1/6 289/1/6
f 289/1/6 291/1/6 290/1/6
f 291/1/6 292/1/6 290/1/6
f 292/1/6 293/1/6 290/1/6
f 292/1/6 295/1/6 293/1/6
f 293/1/6 295/1/6 294/1/6
f 295/1/6 296/1/6 294/1/6
f 296/1/6 297/1/6 294/1/6
f 296/1/6 299/1/6 297/1/6
f 297/1/6 299/1/6 298/1/6
f 299/1/6 300/1/6 298/1/6
f 300/1/6 301/1/6 298/1/6
f 301/1/6 303/1/6 302/1/6
f 300/1/6 303/1/6 301/1/6
f 303/1/6 304/1/6 302/1/6
f 304/1/6 305/1/6 302/1/6
f 305/1/6 307/1/6 306/1/6
f 304/1/6 307/1/6 305/1/6
f 307/1/6 308/1/6 306/1/6
f 308/1/6 309/1/6 306/1/6
f 309/1/6 311/1/6 310/1/6
f 308/1/6 311/1/6 309/1/6
f 311/1/6 312/1/6 310/1/6
